<?xml version="1.0" encoding="UTF-8" standalone="no"?>
<svg
   xmlns:dc="http://purl.org/dc/elements/1.1/"
   xmlns:cc="http://creativecommons.org/ns#"
   xmlns:rdf="http://www.w3.org/1999/02/22-rdf-syntax-ns#"
   xmlns:svg="http://www.w3.org/2000/svg"
   xmlns="http://www.w3.org/2000/svg"
   xmlns:sodipodi="http://sodipodi.sourceforge.net/DTD/sodipodi-0.dtd"
   xmlns:inkscape="http://www.inkscape.org/namespaces/inkscape"
   viewBox="0 0 24 24"
   version="1.1"
   id="svg12"
   sodipodi:docname="arrow-left.svg"
   inkscape:version="0.92.3 (2405546, 2018-03-11)">
  <metadata
     id="metadata18">
    <rdf:RDF>
      <cc:Work
         rdf:about="">
        <dc:format>image/svg+xml</dc:format>
        <dc:type
           rdf:resource="http://purl.org/dc/dcmitype/StillImage" />
        <dc:title></dc:title>
      </cc:Work>
    </rdf:RDF>
  </metadata>
  <defs
     id="defs16" />
  <sodipodi:namedview
     pagecolor="#ffffff"
     bordercolor="#666666"
     borderopacity="1"
     objecttolerance="10"
     gridtolerance="10"
     guidetolerance="10"
     inkscape:pageopacity="0"
     inkscape:pageshadow="2"
     inkscape:window-width="640"
     inkscape:window-height="480"
     id="namedview14"
     showgrid="false"
     inkscape:zoom="9.8333333"
     inkscape:cx="12"
     inkscape:cy="12"
     inkscape:window-x="807"
     inkscape:window-y="275"
     inkscape:window-maximized="0"
     inkscape:current-layer="g10" />
  <g
     data-name="Layer 2"
     id="g10">
    <g
       data-name="arrow-circle-left"
       id="g8">
      <rect
         width="24"
         height="24"
         id="rect2"
         opacity="0" />
      <path
         d="M16 11h-5.66l1.25-1.31a1 1 0 0 0-1.45-1.38l-2.86 3a1 1 0 0 0-.09.13.72.72 0 0 0-.11.19.88.88 0 0 0-.06.28L7 12a1 1 0 0 0 .08.38 1 1 0 0 0 .21.32l3 3a1 1 0 0 0 1.42 0 1 1 0 0 0 0-1.42L10.41 13H16a1 1 0 0 0 0-2z"
         id="path4" />
      <path
         d="M12 2a10 10 0 1 0 10 10A10 10 0 0 0 12 2zm0 18a8 8 0 1 1 8-8 8 8 0 0 1-8 8z"
         id="path6" />
    </g>
  </g>
</svg>
