<?xml version="1.0" encoding="utf-8"?>
<!DOCTYPE svg PUBLIC "-//W3C//DTD SVG 1.1//EN" "http://www.w3.org/Graphics/SVG/1.1/DTD/svg11.dtd">
<svg version="1.1" id="Layer_1" xmlns="http://www.w3.org/2000/svg" xmlns:xlink="http://www.w3.org/1999/xlink" x="0px" y="0px" width="510.067px" height="433.488px" viewBox="4.966 4.012 510.067 433.488" enable-background="new 4.966 4.012 510.067 433.488" xml:space="preserve">
<path fill="#FE417B" d="M259.767,434.95c-6.678,0.038-13.097-2.583-17.838-7.286L46.721,232.205
	c-50.961-51.494-50.961-134.419,0-185.913c51.381-51.236,134.532-51.236,185.913,0l27.133,27.133L286.9,46.292
	c51.381-51.236,134.532-51.236,185.913,0c50.961,51.494,50.961,134.419,0,185.913l-195.209,195.46
	C272.863,432.367,266.445,434.989,259.767,434.95L259.767,434.95z M139.677,58.1c-21.482-0.098-42.11,8.407-57.281,23.616
	c-31.587,31.754-31.587,83.06,0,114.814l177.371,177.622L437.138,196.53c31.587-31.754,31.587-83.06,0-114.814
	c-32.148-30.373-82.414-30.373-114.563,0l-44.971,45.222c-9.771,9.851-25.678,9.916-35.529,0.146
	c-0.048-0.048-0.098-0.097-0.146-0.146l-44.971-45.222C181.787,66.507,161.159,58.002,139.677,58.1L139.677,58.1z"/>
</svg>
