<?xml version="1.0" encoding="utf-8"?>
<!-- Generator: Adobe Illustrator 17.0.0, SVG Export Plug-In . SVG Version: 6.00 Build 0)  -->
<!DOCTYPE svg PUBLIC "-//W3C//DTD SVG 1.1//EN" "http://www.w3.org/Graphics/SVG/1.1/DTD/svg11.dtd">
<svg version="1.1" id="Layer_1" xmlns="http://www.w3.org/2000/svg" xmlns:xlink="http://www.w3.org/1999/xlink" x="0px" y="0px" width="96.864px" height="92.454px" viewBox="0 0 96.864 92.454" enable-background="new 0 0 96.864 92.454" xml:space="preserve">
<g>
	<path fill="#f5be51" d="M50.835,1.535l12.882,25.96c0.404,0.815,1.183,1.378,2.084,1.507l28.688,4.106
		c2.267,0.324,3.178,3.107,1.541,4.709L75.321,58.091c-0.65,0.636-0.945,1.551-0.789,2.447l4.96,28.553
		c0.392,2.256-1.973,3.983-4.003,2.921L49.809,78.581c-0.806-0.421-1.767-0.419-2.571,0.006L21.615,92.128
		c-2.025,1.07-4.397-0.646-4.015-2.904l4.838-28.574c0.152-0.897-0.147-1.811-0.8-2.444L0.842,38.022
		c-1.643-1.595-0.744-4.382,1.521-4.716l28.67-4.229c0.9-0.133,1.676-0.7,2.077-1.516L45.88,1.545
		C46.889-0.51,49.818-0.517,50.835,1.535z"/>
</g>
</svg>
