<svg xmlns="http://www.w3.org/2000/svg" xmlns:xlink="http://www.w3.org/1999/xlink" width="283" height="285.611"><defs><path id="a" d="M5 5.046h273v275.518H5z"/></defs><clipPath id="b"><use xlink:href="#a" overflow="visible"/></clipPath><path clip-path="url(#b)" fill-rule="evenodd" clip-rule="evenodd" fill="#fd3f78" d="M277.741 140.36c-1.665-25.037-10.441-49.609-24.583-70.477-4.806-12.27-12.218-23.831-22.547-34.058C202.738 8.224 161.775-.552 124.674 8.451c-42.299-.713-77.07 27.909-93.979 65.71-12.571 16.149-21.34 35.156-24.39 56.143-7.408 51.05 17.251 99.936 60.05 127.757 21.784 14.159 46.989 20.826 72.314 20.808 43.292 7.503 86.616-10.207 111.965-46.86 5.887-8.507 10.165-17.349 13.082-26.38 10.272-19.92 15.551-42.323 14.025-65.269"/></svg>
