<svg xmlns="http://www.w3.org/2000/svg" xmlns:xlink="http://www.w3.org/1999/xlink" width="244.885" height="169.638"><defs><path id="a" d="M244.885 0H0v169.638h244.885"/></defs><clipPath id="b"><use xlink:href="#a" overflow="visible"/></clipPath><path clip-path="url(#b)" fill-rule="evenodd" clip-rule="evenodd" fill="#FAF1F2" d="M235.472 20.639c3.706-5.604 6.459-11.477 5.266-18.345-.399-2.291 3.076-3.297 3.525-.972 1.505 7.777.471 16.216-5.258 22.044-1.754 1.784-4.97-.555-3.533-2.727M205.966 37.025c6.172-1.973 12.129-4.271 16.811-8.896 2.2-2.172 5.463 1.125 3.38 3.381-5.144 5.574-11.948 9.64-19.692 9.198-2.103-.12-2.556-3.026-.499-3.683M166.41 50.104c4.692-2.232 9.528-3.894 14.421-5.636 3.196-1.137 4.542 3.911 1.395 5.063-4.67 1.709-9.257 3.462-14.082 4.685-2.378.603-4.115-2.979-1.734-4.112M127.152 71.503c5.684-5.925 12.17-10.384 19.352-14.329 2.229-1.224 4.12 2.038 1.987 3.401-6.616 4.224-12.868 9.064-19.124 13.8-1.699 1.285-3.603-1.426-2.215-2.872M114.463 77.863c7.661 0 7.674 11.906 0 11.906-7.661 0-7.674-11.906 0-11.906M111.463 91.519c2.956 0 2.961 4.594 0 4.594-2.956 0-2.961-4.594 0-4.594M87.518 121.203c4.052-3.002 8.491-5.611 11.756-9.538 1.21-1.455 3.09.402 2.43 1.875-2.433 5.426-6.632 10.207-12.741 11.09-2.117.305-3.21-2.12-1.445-3.427M57.965 131.241c4.403-2.795 9.369-3.497 14.488-3.66 2.27-.072 2.884 2.979 1.113 4.106-4.354 2.767-8.872 4.887-14.111 5.057-3.041.099-3.866-3.995-1.49-5.503"/><path clip-path="url(#b)" fill-rule="evenodd" clip-rule="evenodd" fill="#CC2128" d="M47.463 128.675c.181 0 .182.281 0 .281-.181 0-.182-.281 0-.281"/><path clip-path="url(#b)" fill-rule="evenodd" clip-rule="evenodd" fill="#FAF1F2" d="M5.411 160.918c1.854-8.403 7.908-15.42 14.897-20.214 6.216-4.263 15.905-8.784 23.522-6.107 1.045.367 1.414 1.892.324 2.484-6.267 3.404-13.203 4.539-19.136 8.828-6.292 4.55-10.556 10.626-14.723 17.068-1.655 2.56-5.543.928-4.884-2.059"/><path clip-path="url(#b)" fill-rule="evenodd" clip-rule="evenodd" fill="#FAF1F2" d="M.023 165.785c.818-6.471 1.712-13.03 2.955-19.432.411-2.118 3.308-1.376 3.499.474.424 4.102.703 8.255.918 12.401 7.357-3.948 15.76-6.738 23.963-5.964 2.548.24 3.157 3.652.611 4.511-9.266 3.128-18.057 5.583-26.176 11.321-2.221 1.569-6.126-.493-5.77-3.311"/></svg>